{
  "accessors": [
    {
      "bufferView": 2,
      "componentType": 5126,
      "count": 65532,
      "max": [
        0.21081000566482544,
        0.9074699878692627,
        1.0027600526809692
      ],
      "min": [
        -0.9633700251579285,
        -0.3858700096607208,
        -0.8220099806785583
      ],
      "type": "VEC3"
    },
    {
      "bufferView": 2,
      "byteOffset": 786384,
      "componentType": 5126,
      "count": 65532,
      "max": [
        0.9360303282737732,
        0.9490428566932678,
        0.9999999403953552
      ],
      "min": [
        -0.9999544024467468,
        -0.9580670595169067,
        -0.8298244476318359
      ],
      "type": "VEC3"
    },
    {
      "bufferView": 1,
      "componentType": 5126,
      "count": 65532,
      "max": [
        1.2978099584579468,
        0.9791899919509888
      ],
      "min": [
        0.0,
        0.1875
      ],
      "type": "VEC2"
    },
    {
      "bufferView": 0,
      "componentType": 5125,
      "count": 383010,
      "type": "SCALAR"
    },
    {
      "bufferView": 2,
      "byteOffset": 1572768,
      "componentType": 5126,
      "count": 65532,
      "max": [
        0.20181000232696533,
        0.9822400212287903,
        1.0027600526809692
      ],
      "min": [
        -0.8990300297737122,
        -0.21069000661373138,
        -1.0027600526809692
      ],
      "type": "VEC3"
    },
    {
      "bufferView": 2,
      "byteOffset": 2359152,
      "componentType": 5126,
      "count": 65532,
      "max": [
        0.8134097456932068,
        1.0,
        0.9999999403953552
      ],
      "min": [
        -0.9928138256072998,
        -0.9360184073448181,
        -1.0
      ],
      "type": "VEC3"
    },
    {
      "bufferView": 1,
      "byteOffset": 524256,
      "componentType": 5126,
      "count": 65532,
      "max": [
        0.7258999943733215,
        0.9791899919509888
      ],
      "min": [
        0.0,
        0.020810000598430634
      ],
      "type": "VEC2"
    },
    {
      "bufferView": 0,
      "byteOffset": 1532040,
      "componentType": 5125,
      "count": 384645,
      "type": "SCALAR"
    },
    {
      "bufferView": 2,
      "byteOffset": 3145536,
      "componentType": 5126,
      "count": 65532,
      "max": [
        0.07333000004291534,
        0.9822400212287903,
        1.0027600526809692
      ],
      "min": [
        -0.9917700290679932,
        -0.7545300126075745,
        -0.9797999858856201
      ],
      "type": "VEC3"
    },
    {
      "bufferView": 2,
      "byteOffset": 3931920,
      "componentType": 5126,
      "count": 65532,
      "max": [
        0.811204731464386,
        1.0,
        0.9999999403953552
      ],
      "min": [
        -0.9999746680259705,
        -0.9391592741012573,
        -0.9985343813896179
      ],
      "type": "VEC3"
    },
    {
      "bufferView": 1,
      "byteOffset": 1048512,
      "componentType": 5126,
      "count": 65532,
      "max": [
        0.53125,
        0.9791899919509888
      ],
      "min": [
        0.0,
        0.06077999994158745
      ],
      "type": "VEC2"
    },
    {
      "bufferView": 0,
      "byteOffset": 3070620,
      "componentType": 5125,
      "count": 385059,
      "type": "SCALAR"
    },
    {
      "bufferView": 2,
      "byteOffset": 4718304,
      "componentType": 5126,
      "count": 65532,
      "max": [
        0.38975998759269714,
        0.8167099952697754,
        0.9797999858856201
      ],
      "min": [
        -0.9822900295257568,
        -0.9731799960136414,
        -0.9786900281906128
      ],
      "type": "VEC3"
    },
    {
      "bufferView": 2,
      "byteOffset": 5504688,
      "componentType": 5126,
      "count": 65532,
      "max": [
        0.9244893193244934,
        0.9470097422599792,
        0.9999960064888
      ],
      "min": [
        -0.9999746680259705,
        -0.9993887543678284,
        -0.999548077583313
      ],
      "type": "VEC3"
    },
    {
      "bufferView": 1,
      "byteOffset": 1572768,
      "componentType": 5126,
      "count": 65532,
      "max": [
        0.65625,
        0.9369199872016907
      ],
      "min": [
        0.09375,
        0.06481000036001205
      ],
      "type": "VEC2"
    },
    {
      "bufferView": 0,
      "byteOffset": 4610856,
      "componentType": 5125,
      "count": 384066,
      "type": "SCALAR"
    },
    {
      "bufferView": 2,
      "byteOffset": 6291072,
      "componentType": 5126,
      "count": 65532,
      "max": [
        0.7622299790382385,
        0.07400999963283539,
        0.9776399731636047
      ],
      "min": [
        -0.973110020160675,
        -0.9876599907875061,
        -0.9786900281906128
      ],
      "type": "VEC3"
    },
    {
      "bufferView": 2,
      "byteOffset": 7077456,
      "componentType": 5126,
      "count": 65532,
      "max": [
        0.9885613322257996,
        0.8302072286605835,
        0.9999555945396423
      ],
      "min": [
        -0.982681393623352,
        -1.0,
        -0.9998622536659241
      ],
      "type": "VEC3"
    },
    {
      "bufferView": 1,
      "byteOffset": 2097024,
      "componentType": 5126,
      "count": 65532,
      "max": [
        0.78125,
        0.9351900219917297
      ],
      "min": [
        0.25,
        0.06481000036001205
      ],
      "type": "VEC2"
    },
    {
      "bufferView": 0,
      "byteOffset": 6147120,
      "componentType": 5125,
      "count": 385977,
      "type": "SCALAR"
    },
    {
      "bufferView": 2,
      "byteOffset": 7863840,
      "componentType": 5126,
      "count": 65532,
      "max": [
        0.9633700251579285,
        0.9633700251579285,
        0.9786900281906128
      ],
      "min": [
        -0.6889700293540955,
        -0.9645100235939026,
        -0.9786900281906128
      ],
      "type": "VEC3"
    },
    {
      "bufferView": 2,
      "byteOffset": 8650224,
      "componentType": 5126,
      "count": 65532,
      "max": [
        0.9997671246528625,
        0.9998189210891724,
        0.9995294213294983
      ],
      "min": [
        -0.8093987107276917,
        -0.9975551962852478,
        -0.9996662139892578
      ],
      "type": "VEC3"
    },
    {
      "bufferView": 1,
      "byteOffset": 2621280,
      "componentType": 5126,
      "count": 65532,
      "max": [
        1.0,
        0.9351900219917297
      ],
      "min": [
        0.375,
        0.06481000036001205
      ],
      "type": "VEC2"
    },
    {
      "bufferView": 0,
      "byteOffset": 7691028,
      "componentType": 5125,
      "count": 382662,
      "type": "SCALAR"
    },
    {
      "bufferView": 2,
      "byteOffset": 9436608,
      "componentType": 5126,
      "count": 65532,
      "max": [
        0.9822400212287903,
        0.9822400212287903,
        0.9786900281906128
      ],
      "min": [
        0.0,
        -0.37588998675346375,
        -1.0027600526809692
      ],
      "type": "VEC3"
    },
    {
      "bufferView": 2,
      "byteOffset": 10222992,
      "componentType": 5126,
      "count": 65532,
      "max": [
        1.0,
        1.0,
        0.9999279975891113
      ],
      "min": [
        -0.8771644830703735,
        -0.8303244709968567,
        -1.0
      ],
      "type": "VEC3"
    },
    {
      "bufferView": 1,
      "byteOffset": 3145536,
      "componentType": 5126,
      "count": 65532,
      "max": [
        1.0586299896240234,
        0.9351900219917297
      ],
      "min": [
        0.467629998922348,
        0.020810000598430634
      ],
      "type": "VEC2"
    },
    {
      "bufferView": 0,
      "byteOffset": 9221676,
      "componentType": 5125,
      "count": 384153,
      "type": "SCALAR"
    },
    {
      "bufferView": 2,
      "byteOffset": 11009376,
      "componentType": 5126,
      "count": 61607,
      "max": [
        0.9837200045585632,
        0.9645100235939026,
        0.9797999858856201
      ],
      "min": [
        -0.189860001206398,
        -0.9822400212287903,
        -1.0027600526809692
      ],
      "type": "VEC3"
    },
    {
      "bufferView": 2,
      "byteOffset": 11748660,
      "componentType": 5126,
      "count": 61607,
      "max": [
        1.0,
        0.9986563920974731,
        0.9964050054550171
      ],
      "min": [
        -0.8048146367073059,
        -1.0,
        -1.0
      ],
      "type": "VEC3"
    },
    {
      "bufferView": 1,
      "byteOffset": 3669792,
      "componentType": 5126,
      "count": 61607,
      "max": [
        1.3016200065612793,
        0.9583699703216553
      ],
      "min": [
        0.467629998922348,
        0.020810000598430634
      ],
      "type": "VEC2"
    },
    {
      "bufferView": 0,
      "byteOffset": 10758288,
      "componentType": 5125,
      "count": 357852,
      "type": "SCALAR"
    }
  ],
  "asset": {
    "extras": {
      "author": "Chaitanya Krishnan (https://sketchfab.com/chaitanyak)",
      "license": "CC-BY-4.0 (http://creativecommons.org/licenses/by/4.0/)",
      "source": "https://sketchfab.com/3d-models/dead-earth-48cacc35674444bcbfa3b254d96a583a",
      "title": "Dead Earth"
    },
    "generator": "Sketchfab-12.68.0",
    "version": "2.0"
  },
  "bufferViews": [
    {
      "buffer": 0,
      "byteLength": 12189696,
      "name": "floatBufferViews",
      "target": 34963
    },
    {
      "buffer": 0,
      "byteLength": 4162648,
      "byteOffset": 12189696,
      "byteStride": 8,
      "name": "floatBufferViews",
      "target": 34962
    },
    {
      "buffer": 0,
      "byteLength": 12487944,
      "byteOffset": 16352344,
      "byteStride": 12,
      "name": "floatBufferViews",
      "target": 34962
    }
  ],
  "buffers": [
    {
      "byteLength": 28840288,
      "uri": "scene.bin"
    }
  ],
  "images": [
    {
      "uri": "textures/Material.001_baseColor.png"
    }
  ],
  "materials": [
    {
      "doubleSided": true,
      "name": "Material.001",
      "pbrMetallicRoughness": {
        "baseColorTexture": {
          "index": 0
        },
        "metallicFactor": 0.0,
        "roughnessFactor": 0.5775568181818181
      }
    }
  ],
  "meshes": [
    {
      "name": "earth_0",
      "primitives": [
        {
          "attributes": {
            "NORMAL": 1,
            "POSITION": 0,
            "TEXCOORD_0": 2
          },
          "indices": 3,
          "material": 0,
          "mode": 4
        }
      ]
    },
    {
      "name": "earth_0",
      "primitives": [
        {
          "attributes": {
            "NORMAL": 5,
            "POSITION": 4,
            "TEXCOORD_0": 6
          },
          "indices": 7,
          "material": 0,
          "mode": 4
        }
      ]
    },
    {
      "name": "earth_0",
      "primitives": [
        {
          "attributes": {
            "NORMAL": 9,
            "POSITION": 8,
            "TEXCOORD_0": 10
          },
          "indices": 11,
          "material": 0,
          "mode": 4
        }
      ]
    },
    {
      "name": "earth_0",
      "primitives": [
        {
          "attributes": {
            "NORMAL": 13,
            "POSITION": 12,
            "TEXCOORD_0": 14
          },
          "indices": 15,
          "material": 0,
          "mode": 4
        }
      ]
    },
    {
      "name": "earth_0",
      "primitives": [
        {
          "attributes": {
            "NORMAL": 17,
            "POSITION": 16,
            "TEXCOORD_0": 18
          },
          "indices": 19,
          "material": 0,
          "mode": 4
        }
      ]
    },
    {
      "name": "earth_0",
      "primitives": [
        {
          "attributes": {
            "NORMAL": 21,
            "POSITION": 20,
            "TEXCOORD_0": 22
          },
          "indices": 23,
          "material": 0,
          "mode": 4
        }
      ]
    },
    {
      "name": "earth_0",
      "primitives": [
        {
          "attributes": {
            "NORMAL": 25,
            "POSITION": 24,
            "TEXCOORD_0": 26
          },
          "indices": 27,
          "material": 0,
          "mode": 4
        }
      ]
    },
    {
      "name": "earth_0",
      "primitives": [
        {
          "attributes": {
            "NORMAL": 29,
            "POSITION": 28,
            "TEXCOORD_0": 30
          },
          "indices": 31,
          "material": 0,
          "mode": 4
        }
      ]
    }
  ],
  "nodes": [
    {
      "children": [
        1
      ],
      "matrix": [
        1.0,
        0.0,
        0.0,
        0.0,
        0.0,
        2.220446049250313e-16,
        -1.0,
        0.0,
        0.0,
        1.0,
        2.220446049250313e-16,
        0.0,
        0.0,
        0.0,
        0.0,
        1.0
      ],
      "name": "Sketchfab_model"
    },
    {
      "children": [
        2,
        3,
        5,
        14
      ],
      "name": "Root"
    },
    {
      "name": "Camera",
      "rotation": [
        0.7055262327194214,
        0.0010599943343549967,
        0.003119983244687319,
        0.7086761593818665
      ],
      "translation": [
        -0.010569999925792217,
        -5.875150203704834,
        0.030710000544786453
      ]
    },
    {
      "children": [
        4
      ],
      "matrix": [
        -0.29086000000000006,
        0.9551700000000001,
        -0.05519000000000001,
        0.0,
        -0.7711,
        -0.19988000000000003,
        0.6045200000000001,
        0.0,
        0.5663900000000001,
        0.21839000000000003,
        0.7946700000000001,
        0.0,
        0.48918000000000006,
        -1.9373999999999998,
        4.146929999999999,
        1.0
      ],
      "name": "Lamp"
    },
    {
      "name": "Lamp"
    },
    {
      "children": [
        6,
        7,
        8,
        9,
        10,
        11,
        12,
        13
      ],
      "name": "earth"
    },
    {
      "mesh": 0,
      "name": "earth_0"
    },
    {
      "mesh": 1,
      "name": "earth_0"
    },
    {
      "mesh": 2,
      "name": "earth_0"
    },
    {
      "mesh": 3,
      "name": "earth_0"
    },
    {
      "mesh": 4,
      "name": "earth_0"
    },
    {
      "mesh": 5,
      "name": "earth_0"
    },
    {
      "mesh": 6,
      "name": "earth_0"
    },
    {
      "mesh": 7,
      "name": "earth_0"
    },
    {
      "name": "earth.001"
    }
  ],
  "samplers": [
    {
      "magFilter": 9729,
      "minFilter": 9987,
      "wrapS": 10497,
      "wrapT": 10497
    }
  ],
  "scene": 0,
  "scenes": [
    {
      "name": "Sketchfab_Scene",
      "nodes": [
        0
      ]
    }
  ],
  "textures": [
    {
      "sampler": 0,
      "source": 0
    }
  ]
}
