<svg xmlns="http://www.w3.org/2000/svg" version="1.1" xmlns:xlink="http://www.w3.org/1999/xlink" xmlns:svgjs="http://svgjs.dev/svgjs" width="1500" height="1500" viewBox="0 0 1500 1500"><g transform="matrix(1,0,0,1,-0.323615160350073,-0.3236151603499593)"><svg viewBox="0 0 343 343" data-background-color="#ffffff" preserveAspectRatio="xMidYMid meet" height="1500" width="1500" xmlns="http://www.w3.org/2000/svg" xmlns:xlink="http://www.w3.org/1999/xlink"><g id="tight-bounds" transform="matrix(1,0,0,1,0.0740000000000407,0.07400000000001228)"><svg viewBox="0 0 342.85155851775386 342.85155851775386" height="342.85155851775386" width="342.85155851775386"><g><svg></svg></g><g><svg viewBox="0 0 342.85155851775386 342.85155851775386" height="342.85155851775386" width="342.85155851775386"><g><path d="M0 171.426c0-94.676 76.75-171.426 171.426-171.426 94.676 0 171.426 76.75 171.426 171.426 0 94.676-76.75 171.426-171.426 171.426-94.676 0-171.426-76.75-171.426-171.426zM171.426 329.958c87.555 0 158.532-70.977 158.532-158.532 0-87.555-70.977-158.532-158.532-158.532-87.555 0-158.532 70.977-158.532 158.532 0 87.555 70.977 158.532 158.532 158.532z" data-fill-palette-color="tertiary" fill="#a89078" stroke="transparent"></path><ellipse rx="164.56874808852186" ry="164.56874808852186" cx="171.42577925887693" cy="171.42577925887693" fill="#a89078" stroke="transparent" stroke-width="0" fill-opacity="1" data-fill-palette-color="tertiary"></ellipse></g><g transform="matrix(1,0,0,1,64.84655864529837,99.93726430014641)"><svg viewBox="0 0 213.1584412271571 142.97702991746104" height="142.97702991746104" width="213.1584412271571"><g><svg viewBox="0 0 213.1584412271571 142.97702991746104" height="142.97702991746104" width="213.1584412271571"><g><svg viewBox="0 0 213.1584412271571 142.97702991746104" height="142.97702991746104" width="213.1584412271571"><g><svg viewBox="0 0 213.1584412271571 142.97702991746104" height="142.97702991746104" width="213.1584412271571"><g id="textblocktransform"><svg viewBox="0 0 213.1584412271571 142.97702991746104" height="142.97702991746104" width="213.1584412271571" id="textblock"><g><svg viewBox="0 0 213.1584412271571 142.97702991746104" height="142.97702991746104" width="213.1584412271571"><g transform="matrix(1,0,0,1,0,0)"><svg width="213.1584412271571" viewBox="1.8 -35.05 53 35.55" height="142.97702991746104" data-palette-color="#ffffff"><path d="M24.35-34.45Q26.1-34.25 26.1-32.65L26.1-32.65Q26.1-31.75 25.6-31.28 25.1-30.8 24.2-30.85L24.2-30.85Q19.65-31.2 16.05-31.25L16.05-31.25Q15.65-26.6 15.4-17.8L15.4-17.8 15.35-16.75Q15-6.55 15-1.6L15-1.6Q15-0.45 14.53 0.03 14.05 0.5 12.95 0.5L12.95 0.5Q11.8 0.5 11.35-0.05 10.9-0.6 10.9-2.05L10.9-2.05Q10.9-3.6 11.05-7.58 11.2-11.55 11.3-13.8L11.3-13.8 11.45-16.7 12.15-31.25Q8.3-31.15 3.75-30.7L3.75-30.7Q2.85-30.6 2.33-31.08 1.8-31.55 1.8-32.5L1.8-32.5Q1.8-34.05 3.3-34.2L3.3-34.2Q8.8-34.8 14.4-34.8L14.4-34.8Q21.35-34.8 24.35-34.45L24.35-34.45ZM53.2-35Q54.8-34.85 54.8-33.25L54.8-33.25Q54.8-31.55 52.95-31.55L52.95-31.55 50.4-31.55Q50.25-21 50.25-12.9L50.25-12.9Q50.25-6.8 47.35-3.4 44.45 0 39.15 0L39.15 0Q34.45 0 31.72-3 29-6 29-12.8L29-12.8Q29-13.8 29.4-14.3 29.8-14.8 30.85-14.8L30.85-14.8Q31.9-14.8 32.35-14.3 32.8-13.8 32.85-12.8L32.85-12.8Q33-10.15 33.4-8.25 33.8-6.35 35.15-4.95 36.5-3.55 39.15-3.55L39.15-3.55Q42.4-3.55 44.32-5.88 46.25-8.2 46.25-13.15L46.25-13.15Q46.25-21.05 46.55-31.45L46.55-31.45 43.05-31.45Q42.15-31.45 41.65-31.9 41.15-32.35 41.15-33.2L41.15-33.2Q41.15-33.95 41.52-34.38 41.9-34.8 42.45-34.85L42.45-34.85Q44.85-35.05 48.05-35.05L48.05-35.05Q52.2-35.05 53.2-35L53.2-35Z" opacity="1" transform="matrix(1,0,0,1,0,0)" fill="#ffffff" class="wordmark-text-0" data-fill-palette-color="quaternary" id="text-0"></path></svg></g></svg></g></svg></g></svg></g><g></g></svg></g></svg></g></svg></g></svg></g><defs></defs></svg><rect width="342.85155851775386" height="342.85155851775386" fill="none" stroke="none" visibility="hidden"></rect></g></svg></g></svg>